<?xml version="1.0" encoding="utf-8"?>
<!-- Generator: Adobe Illustrator 26.3.1, SVG Export Plug-In . SVG Version: 6.00 Build 0)  -->
<svg version="1.1"
	 id="Layer_1" xmlns:cc="http://web.resource.org/cc/" xmlns:dc="http://purl.org/dc/elements/1.1/" xmlns:rdf="http://www.w3.org/1999/02/22-rdf-syntax-ns#"
	 xmlns="http://www.w3.org/2000/svg" xmlns:xlink="http://www.w3.org/1999/xlink" x="0px" y="0px" viewBox="0 0 58.3 58.3"
	 style="enable-background:new 0 0 58.3 58.3;" xml:space="preserve">
<style type="text/css">
	.st0{fill:#43FF64;}
</style>
<polygon class="st0" points="23,28.6 13.2,37.3 13.2,20 "/>
<path class="st0" d="M33,30.6l9.3,8.3H16.1l9.2-8.2l2.8,2.4c0.6,0.5,1.5,0.5,2,0L33,30.6z"/>
<polygon class="st0" points="29.1,29.8 15.8,18.2 42.5,18.2 "/>
<polygon class="st0" points="35.3,28.6 45.1,20 45.1,37.2 "/>
<path class="st0" d="M29.1,0C13,0,0,13.1,0,29.1c0,16.1,13,29.1,29.1,29.1c16.1,0,29.1-13,29.1-29.1C58.3,13.1,45.2,0,29.1,0z
	 M48.2,40.5c0,0.8-0.7,1.5-1.6,1.5h-35c-0.8,0-1.5-0.7-1.5-1.5V16c0-0.9,0.7-1.6,1.5-1.6h35c0.9,0,1.6,0.7,1.6,1.6V40.5z"/>
</svg>
