<?xml version="1.0" encoding="utf-8"?>
<!-- Generator: Adobe Illustrator 26.3.1, SVG Export Plug-In . SVG Version: 6.00 Build 0)  -->
<svg version="1.1"
	 id="Layer_1" xmlns:cc="http://web.resource.org/cc/" xmlns:dc="http://purl.org/dc/elements/1.1/" xmlns:rdf="http://www.w3.org/1999/02/22-rdf-syntax-ns#"
	 xmlns="http://www.w3.org/2000/svg" xmlns:xlink="http://www.w3.org/1999/xlink" x="0px" y="0px" viewBox="0 0 58.3 58.3"
	 style="enable-background:new 0 0 58.3 58.3;" xml:space="preserve">
<style type="text/css">
	.st0{fill:#9A4DC3;}
</style>
<path class="st0" d="M29.1,0C13,0,0,13.1,0,29.1c0,16.1,13,29.1,29.1,29.1c16.1,0,29.1-13,29.1-29.1C58.3,13.1,45.2,0,29.1,0z
	 M20,11.1l2.7-1.6c0.6-0.3,1.3-0.1,1.7,0.4l5.2,9c0.3,0.6,0.1,1.4-0.4,1.7l-2.7,1.6c-0.6,0.3-1.3,0.1-1.7-0.5l-5.2-9
	C19.2,12.2,19.4,11.4,20,11.1z M31,48.1c-8.1-4.6-17-20-16.8-29.2c0.1-3.2,2-4.5,4.4-5.9c1.1,1.8,4.5,7.7,5.5,9.6
	C18.7,25.6,27,41.2,33,37.8c1.1,1.8,4.5,7.7,5.5,9.6C36,48.8,33.9,49.7,31,48.1z M43.4,45.3l-2.7,1.6c-0.6,0.3-1.3,0.1-1.7-0.4
	l-5.2-9c-0.3-0.6-0.1-1.3,0.5-1.7l2.7-1.6c0.6-0.3,1.3-0.1,1.7,0.5l5.2,9C44.2,44.2,44,45,43.4,45.3z"/>
</svg>
