<svg width="480" height="480" viewBox="0 0 480 480" fill="none" xmlns="http://www.w3.org/2000/svg">
<g clip-path="url(#clip0_17_28)">
<mask id="mask0_17_28" style="mask-type:luminance" maskUnits="userSpaceOnUse" x="0" y="0" width="480" height="480">
<path d="M480 0H0V480H480V0Z" fill="white"/>
</mask>
<g mask="url(#mask0_17_28)">
<path d="M177.31 471.724H302.688C261.624 482.759 218.374 482.759 177.31 471.724Z" fill="#BF495E"/>
<path d="M366.806 443.793C360.869 447.506 354.759 450.955 348.476 454.138H131.529C125.249 450.952 119.139 447.504 113.197 443.793H366.806Z" fill="#BF495E"/>
<path d="M403.323 415.862C399.475 419.441 395.506 422.889 391.416 426.207H88.5822C84.4959 422.897 80.5267 419.449 76.6748 415.862H403.323Z" fill="#BF495E"/>
<path d="M430.603 385.862C427.344 390.114 423.948 394.252 420.414 398.276H59.5855C56.0578 394.252 52.6611 390.114 49.3959 385.862H430.603Z" fill="#BF495E"/>
<path d="M452.461 351.724C449.482 357.383 446.285 362.9 442.872 368.276H37.1263C33.7123 362.896 30.5159 357.379 27.537 351.724H452.461Z" fill="#BF495E"/>
<path d="M469.831 309.311C467.299 317.749 464.294 326.038 460.831 334.138H19.1686C15.7053 326.037 12.7005 317.749 10.1686 309.311H469.831Z" fill="#BF495E"/>
<path d="M479.359 257.586C478.534 269.07 476.881 280.479 474.412 291.724H5.58745C3.11831 280.479 1.46493 269.07 0.640137 257.586H479.359Z" fill="#BF495E"/>
<path d="M469.832 170.689H10.1696C39.9001 71.9274 131.556 0 240 0C348.444 0 440.1 71.9274 469.832 170.689Z" fill="#BF495E"/>
<path d="M480 240H6.30396e-05C-0.0125267 222.607 1.86066 205.265 5.58651 188.276H474.411C478.138 205.265 480.012 222.607 480 240Z" fill="#BF495E"/>
</g>
</g>
<defs>
<clipPath id="clip0_17_28">
<rect width="480" height="480" fill="white"/>
</clipPath>
</defs>
</svg>
